# xmcd CD database file
#
# Track frame offsets:
#	187
#	16605
#	39100
#	59780
#	85025
#	106450
#	125122
#	140792
#
# Disc length: 2151 seconds
#
# Revision: 0
# Processed by: cddbd v1.5PL3 Copyright (c) Steve Scherf et al.
# Submitted via: CDex 1.51
#
DISCID=69086508
DTITLE=TV Wildings - New Days
DYEAR=1989
DGENRE=Hard Rock
TTITLE0=Gimme Some Lovin'
TTITLE1=New Days
TTITLE2=Cry My Heart
TTITLE3=Yellow Man
TTITLE4=Dream World
TTITLE5=Hold Me
TTITLE6=謝肉祭（ブガルー）の夜
TTITLE7=Shine
EXTD=YEAR: 1989
EXTT0=
EXTT1=
EXTT2=
EXTT3=
EXTT4=
EXTT5=
EXTT6=
EXTT7=
PLAYORDER=
